<svg width="65" height="64" viewBox="0 0 65 64" fill="none" xmlns="http://www.w3.org/2000/svg">
<path d="M38.6643 53.6985C37.2919 52.3261 37.2919 50.1012 38.6643 48.7288L50.1134 37.2797C51.4858 35.9073 53.7107 35.9073 55.0831 37.2797L57.2094 39.4059L59.4765 37.1388C62.8627 33.7526 62.8627 28.263 59.4765 24.8768L37.1388 2.53966C33.7526 -0.846552 28.263 -0.846552 24.8768 2.53966L2.53966 24.8768C-0.846552 28.263 -0.846552 33.7526 2.53966 37.1388L24.8773 59.4765C28.2636 62.8627 33.7531 62.8627 37.1393 59.4765L40.7905 55.8253L38.6643 53.6985Z" fill="#008FD8"/>
<path d="M59.0253 37.4428L57.1814 39.2867L56.5247 38.6301C55.4961 37.6025 54.1293 37.0359 52.6756 37.0359C51.2218 37.0359 49.855 37.6025 48.8265 38.6301L40.0468 47.4092C37.9247 49.5324 37.9247 52.9847 40.0468 55.1079L40.7035 55.7646L37.5946 58.8735C33.9377 62.5304 28.0102 62.5304 24.3534 58.8735L2.92267 37.4428C-0.734151 33.786 -0.734151 27.8585 2.92267 24.2017L24.3534 2.77094C28.0102 -0.885885 33.9377 -0.885885 37.5946 2.77094L59.0253 24.2017C62.6826 27.859 62.6826 33.786 59.0253 37.4428Z" fill="#008FD8"/>
<path d="M63.9619 53.7654L55.1828 62.5445C54.7932 62.9341 54.3364 63.2139 53.8491 63.3848C53.7402 63.4229 53.6314 63.4545 53.52 63.4825C53.2427 63.5496 52.9594 63.5837 52.6761 63.5837C52.3928 63.5837 52.1094 63.5496 51.8322 63.4825C51.7208 63.4545 51.612 63.4229 51.5031 63.3848C51.0158 63.2139 50.559 62.9341 50.1694 62.5445L41.3903 53.7654C40.0057 52.3813 40.0057 50.136 41.3903 48.7519L50.1694 39.9728C50.559 39.5832 51.0158 39.3034 51.5031 39.1325C51.612 39.0943 51.7208 39.0628 51.8322 39.0348C52.1094 38.9677 52.3928 38.9336 52.6761 38.9336C52.9594 38.9336 53.2427 38.9677 53.52 39.0348C53.6314 39.0628 53.7402 39.0943 53.8491 39.1325C54.3364 39.3034 54.7932 39.5832 55.1828 39.9728L63.9619 48.7519C65.346 50.136 65.346 52.3808 63.9619 53.7654Z" fill="#FFD402"/>
<path d="M46.4118 46.134V49.1708H45.3996V50.6892H46.4118V54.0057C46.4118 54.0057 46.4118 55.8776 48.6897 55.7509C48.6897 55.7509 50.145 55.6879 50.5244 55.4345L50.2711 53.6628C50.2711 53.6628 48.8794 54.2956 49.0055 53.0301V50.6256H51.5362V49.1072H49.0055V46.1971L46.4118 46.134Z" fill="#008FD8"/>
<path d="M52.3592 48.7915V50.5627H55.3965L52.1064 53.8528V55.6245H58.9393V53.7266H55.2698L58.6865 50.3099V48.7915H52.3592Z" fill="#008FD8"/>
<path d="M10.8544 26.0142H14.5468V30.4431H18.5734V26.0142H22.3696V38.6678H18.5734V33.6065H14.5468V38.6678H10.8544V26.0142Z" fill="white"/>
<path d="M24.2771 26.0142H27.5194V38.6678H24.2675L24.2771 26.0142Z" fill="white"/>
<path d="M29.5826 34.3655L28.317 36.7699C28.317 36.7699 32.8726 40.9456 38.3139 37.7822C38.3139 37.7822 40.6308 35.5705 38.7132 32.9432C38.7132 32.9432 37.5549 31.5815 33.2526 30.3159C33.2526 30.3159 31.6076 29.0504 33.7587 28.5442C33.7587 28.5442 36.9221 28.1648 40.9716 31.8343L44.2617 30.6954C44.2617 30.6954 39.2 26.7726 36.2899 26.0136C36.2899 26.0136 31.8899 24.8518 29.9457 27.6154C28.0016 30.379 29.726 32.4681 32.2169 33.195C34.7079 33.9219 36.4796 34.3014 35.594 35.9464C35.593 35.9474 33.6946 37.4658 29.5826 34.3655Z" fill="white"/>
<path d="M40.9075 32.4039V38.478H44.1976V34.9351C44.1976 34.9351 51.1765 36.398 51.2935 30.6048C51.2935 30.6048 52.0428 25.4443 46.0954 25.9505H40.9075V27.5955L44.0709 29.8733V28.3549L47.1855 28.5752C47.1855 28.5752 48.358 28.6322 48.4292 30.3916C48.4292 30.3916 48.564 32.3231 46.6341 32.1735L40.9711 32.2015L40.9075 32.4039Z" fill="white"/>
</svg>
